<svg data-wf-icon="SymbolFillIcon" width="24" height="24" viewBox="0 0 24 24" fill="none" xmlns="http://www.w3.org/2000/svg"><path fill-rule="evenodd" clip-rule="evenodd" d="M13.2354 2.8401C12.7788 2.58325 12.2212 2.58325 11.7646 2.8401L4.76461 6.7776C4.29229 7.04328 4 7.54305 4 8.08496V15.9153C4 16.4572 4.29229 16.957 4.76461 17.2226L11.7646 21.1601C12.2212 21.417 12.7788 21.417 13.2354 21.1601L20.2354 17.2226C20.7077 16.957 21 16.4572 21 15.9153V8.08496C21 7.54305 20.7077 7.04327 20.2354 6.7776L13.2354 2.8401ZM12.2549 3.71167C12.4071 3.62606 12.5929 3.62606 12.7451 3.71167L19.4801 7.50011L12.5 11.4264L5.51987 7.50011L12.2549 3.71167ZM5 8.35504V15.9153C5 16.0959 5.09743 16.2625 5.25487 16.3511L12 20.1452V12.2925L5 8.35504ZM13 20.1452L19.7451 16.3511C19.9026 16.2625 20 16.0959 20 15.9153V8.35504L13 12.2925V20.1452Z" fill="currentColor"></path><g opacity="0.4"><path d="M12.5 9.6169C12.5 10.0056 12.076 10.2456 11.7428 10.0457L8.21458 7.92875C7.89091 7.73454 7.89091 7.26545 8.21458 7.07125L11.7428 4.95435C12.076 4.75439 12.5 4.99445 12.5 5.3831V9.6169Z" fill="currentColor"></path><path d="M10.2854 13.4287C10.6091 13.2345 10.6091 12.7655 10.2854 12.5713L6.75725 10.4543C6.42399 10.2544 6 10.4944 6 10.8831V15.1169C6 15.5056 6.42399 15.7456 6.75725 15.5457L10.2854 13.4287Z" fill="currentColor"></path></g></svg>