<svg data-wf-icon="PagePanelIcon" width="24" height="24" viewBox="0 0 24 24" fill="none" xmlns="http://www.w3.org/2000/svg"><path fill-rule="evenodd" clip-rule="evenodd" d="M6.5 4C6.22386 4 6 4.22386 6 4.5V19.5C6 19.7761 6.22386 20 6.5 20H18.5C18.7761 20 19 19.7761 19 19.5V9.70711L13.2929 4H6.5ZM5 4.5C5 3.67157 5.67157 3 6.5 3H13.7071L20 9.29289V19.5C20 20.3284 19.3284 21 18.5 21H6.5C5.67157 21 5 20.3284 5 19.5V4.5Z" fill="currentColor"></path><path opacity="0.4" d="M16.7929 10H13.5C13.2239 10 13 9.77614 13 9.5V6.20711C13 5.76165 13.5386 5.53857 13.8536 5.85355L17.1464 9.14645C17.4614 9.46143 17.2383 10 16.7929 10Z" fill="currentColor"></path></svg>