<?xml version="1.0" encoding="utf-8"?>
<!-- Generator: Adobe Illustrator 16.0.0, SVG Export Plug-In . SVG Version: 6.00 Build 0)  -->
<!DOCTYPE svg PUBLIC "-//W3C//DTD SVG 1.1//EN" "http://www.w3.org/Graphics/SVG/1.1/DTD/svg11.dtd">
<svg version="1.1" id="Layer_1" xmlns="http://www.w3.org/2000/svg" xmlns:xlink="http://www.w3.org/1999/xlink" x="0px" y="0px"
	 width="1600px" height="426px" viewBox="0 0 1600 426" enable-background="new 0 0 1600 426" xml:space="preserve">
<g id="layer101">
	<path fill="#1F1C1D" d="M17.7,419.3C17.3,419,17,390,17,354.9V291.1l2.9-3.3c1.6-1.899,5.5-4.399,8.8-5.8
		c33.2-13.6,58.7-29.7,88.8-56c14.7-12.9,14.4-12.5,11.4-15.7c-4.6-4.9-24.5-21.7-35.4-29.9c-19.9-14.7-37.2-24.8-59-33.9
		c-4.9-2.1-10.2-4.7-11.8-5.8c-5.9-4-5.7-1.9-5.7-70.6c0-45,0.3-63.2,1.1-63.7c0.7-0.4,6.6,4.8,14,12.2L45,31.5v51.3
		c0,58.7-0.7,54.3,9.4,59.4c17.3,8.7,46.6,29.8,65.4,47c17.6,16.1,21.3,21.9,17.9,28.399c-1.9,3.699-19.5,21.101-30.7,30.399
		c-15.4,12.7-40,29.399-53.7,36.399c-8.9,4.399-8.3,0.301-8.3,58.5V394.3l-12.7,12.9c-7,7-13,12.8-13.3,12.8
		C18.6,420,18,419.7,17.7,419.3z"/>
	<path fill="#1F1C1D" d="M274.2,406.7L261,393.5v-51c0-43.7-0.2-51.4-1.5-53.2c-0.8-1.2-5-4-9.2-6.3c-11.4-6.1-34.2-21.5-46.3-31.1
		c-5.8-4.602-16-13.7-22.8-20.301c-18.7-18.101-18.6-19.301,1.8-38.899c19.2-18.5,42-35.5,63.5-47.5c5-2.7,10.2-6.1,11.8-7.5
		l2.7-2.6V83.6V32l13.4-13.5c7.3-7.4,13.6-13.2,14-12.8c0.3,0.3,0.6,29.6,0.6,64.9v64.3l-2.9,3.3c-1.6,1.9-5.5,4.4-8.8,5.8
		c-26.9,11-51,25.1-73.3,43c-9.3,7.4-29,25.1-29,26c0,1,19,17.9,30.5,27c10.4,8.4,30.7,21.9,41.5,27.8c4.1,2.2,13.8,6.8,21.5,10.2
		c9.8,4.3,15,7.1,17.3,9.5l3.2,3.5v63.9c0,35.199-0.4,64.199-0.8,64.5C287.7,419.7,281.4,413.9,274.2,406.7z"/>
</g>
<g id="layer102">
	<path fill="#E61F2D" d="M63.4,418.5c-0.4-1-0.5-29.6-0.2-63.6l0.6-62l2.5-3.801c1.4-2.199,8.8-9.301,16.4-15.801
		c13.8-12,35.3-33.6,35.3-35.6c0-0.602,4-5.2,8.9-10.2s9.3-10.3,9.6-11.7c1.3-5-1.3-9.7-10.1-18.3c-4.6-4.5-8.4-8.7-8.4-9.2
		c0-2-22.5-24.6-36.1-36.4c-7.6-6.5-14.7-13.5-15.9-15.4l-2.3-3.7l-0.1-63.1c-0.1-51.2,0.1-63.2,1.2-63.2c0.7,0,6.5,5.6,12.7,12.5
		L89,31.5v50.3c0,47.7,0.1,50.5,1.9,54.1c2.4,4.6,8.2,11.9,22.1,27.6c5.8,6.6,13,14.9,15.9,18.5c3.5,4.1,5.1,5.5,4.6,4
		c-1.9-6.2-10.8-24.9-16.3-34.2c-3.4-5.7-6.6-12.5-7.2-15.3c-1.4-5.8-1.4-116.5-0.1-117.8c2.1-2.1,19.5,23.8,26.1,39
		c7.8,17.7,8.1,19.5,9,51.8c1.1,38.1,1.1,168.2,0,205c-0.9,32.6-1.7,37.3-8.8,52.8c-6.3,13.4-24.6,40.7-26.3,39
		c-1.3-1.3-1.3-111,0.1-116.8c0.6-2.7,3.8-9.5,7-15c7.1-12.1,19.3-38.4,16.1-34.9c-0.5,0.5-3.5,4.102-6.7,7.9
		c-3.2,3.9-9.4,11.1-13.9,16c-12.6,14-19.4,22.3-21.5,26.5c-1.9,3.8-2,6.1-2,54.2v50.3L77.5,407c-6.3,6.9-11.9,12.6-12.5,12.8
		C64.5,420,63.7,419.4,63.4,418.5z"/>
	<path fill="#E61F2D" d="M228.8,407.2l-11.7-12.7l-0.1-51v-51l-2.7-4c-3.8-5.7-9.1-12.1-22.8-27.5c-6.6-7.4-13.3-15.2-14.9-17.3
		c-1.6-2.101-3-3.601-3.2-3.4c-1.1,1,9.4,23.101,17.9,38c3,5.2,4.9,9.9,5.6,14.101c1.4,7.801,1.5,115.199,0.2,116
		c-1.3,0.801-8.7-7.699-15.4-17.699c-12.3-18.2-19-37.301-20.7-58.2c-2.6-33.399-1.9-198.6,1-243.5c1.2-19.4,5.5-30,21.6-54
		c11-16.5,12-17.8,13.4-16.4c0.8,0.8,1,17.7,0.8,58.5c-0.4,65.3,0.6,58-10.3,77.4c-6.4,11.5-9.3,17.6-13.6,28.8l-1.9,5.2l2.2-3
		c1.3-1.6,9.2-10.9,17.7-20.5c8.4-9.6,17.5-20.6,20.2-24.4l4.9-6.9V82.6l0.1-51.1L228.6,19c6.4-6.9,12.1-12.5,12.8-12.5
		c1.5,0,2.2,120.3,0.6,125.7c-1.5,5.1-4.3,8.2-19.5,21.4C209.2,165,189,185.4,189,187.3c0,0.6-4,5.2-9,10.2c-14,14.3-14.1,16.5-1,30
		c4.8,5,8.9,9.5,9.1,10.2c0.9,2.8,19,21.1,33.4,33.8c8.5,7.5,16.7,15.2,18.2,17.2l2.8,3.6v63.5c0,41.5-0.3,63.601-1,63.8
		C241,419.8,235.2,414.2,228.8,407.2z"/>
	<path fill="#E61F2D" d="M427.6,280.1c-0.5-0.699,24.5-35.1,64.7-89.1c21.7-29,22.2-30,19.8-36.2c-0.5-1.3-19.3-27.3-41.898-57.8
		c-22.602-30.5-40.8-55.8-40.5-56.2c0.2-0.5,12.3-0.8,26.8-0.8c23,0,27.1,0.2,32.4,1.9c7.6,2.4,13.6,5.9,18.3,10.8
		c4.8,5,42.7,57,44.3,60.7l1.3,2.9l1.602-3.4c3.1-6.5,39.698-55.4,45.898-61.4c4.2-4.1,8.2-6.9,12.2-8.5c5.8-2.3,7-2.4,33.9-2.8
		c17.1-0.2,28.198,0,28.8,0.6c0.898,0.9-10.4,16.6-65.602,91c-13.5,18.1-15.898,22-16.3,25.6c-0.3,2.5,0,5.3,0.7,6.6
		c1.4,2.5,12,17.1,52,71c34.4,46.4,32.9,44.3,32.4,45.2c-0.302,0.5-11.9,0.8-25.7,0.8c-28.2,0-33.3-0.8-42.4-6.2
		c-2.898-1.8-7.5-5.5-10.1-8.3c-5.5-5.6-43-56.1-45.7-61.4l-1.8-3.5l-2,4c-3.2,6.2-40.7,57.4-45.8,62.4
		c-5.5,5.5-14.5,10.4-21.7,11.9C476.9,281.2,428.4,281.4,427.6,280.1z"/>
	<path fill="#E61F2D" d="M779.5,279.8c-0.3-0.7-0.4-54.8-0.3-120.3l0.3-119l58-0.3c55.4-0.2,58.4-0.1,66,1.8
		c27.1,6.9,48.9,28.4,55.1,54.5c4.602,19.9-0.698,41.3-13.3,52.6l-4,3.6l3.3,1.2c8.302,3,19.9,20,24,35.1c2.4,8.8,2.5,26.2,0.102,35
		c-6.9,25.6-26,45.1-53.2,54.1c-7,2.4-7,2.4-71.3,2.7C792.3,281,779.9,280.8,779.5,279.8z M904.7,222.3
		c11.5-5.399,12.398-25.7,1.5-32.5c-3.602-2.3-4.3-2.3-36.9-2.6l-33.3-0.3v18.5V224h32.6C896.9,224,901.7,223.8,904.7,222.3z
		 M896.4,128.1c7.198-4.5,9.6-14.7,5.398-23.1c-4.2-8.2-5.2-8.5-37.5-8.8L836,95.9v17.6v17.7l28.3-0.4
		C892.1,130.5,892.6,130.5,896.4,128.1z"/>
	<path fill="#E61F2D" d="M1041.7,280.3c-0.4-0.3-0.7-24.2-0.7-53c0-49.5-0.1-52.6-1.9-56.1c-1-2-14.398-20.6-29.698-41.2
		C994.2,109.4,978.1,87.6,973.6,81.5c-4.5-6-12.898-17.5-18.898-25.4c-6.102-8.3-10.3-14.9-9.8-15.4S958.3,40,973.6,40.2l27.9,0.3
		l6.7,3.2c11.3,5.3,13.7,8.1,48.1,55c5.3,7.3,10.5,14.8,11.4,16.8l1.7,3.6l1.398-2.8c1.301-2.5,7.2-10.6,35.5-49.2
		c10.801-14.6,15.602-19.3,24.102-23.3l7.1-3.3l28.4-0.3c15.6-0.2,28.698,0,29.1,0.5c0.4,0.4-5.6,9.4-13.4,19.8
		c-7.698,10.5-21.1,28.5-29.6,40c-8.5,11.6-22.6,30.7-31.4,42.5c-8.8,11.8-17.3,23.7-19,26.4l-3.1,4.9L1098,227.4l-0.5,53.1
		l-27.6,0.3C1054.8,280.9,1042.1,280.7,1041.7,280.3z"/>
	<path fill="#E61F2D" d="M1270.7,280.3c-0.4-0.3-0.7-42.6-0.7-94V93h-32.4c-26.198,0-32.6-0.3-33.5-1.4c-0.8-0.9-1.1-8.7-0.898-26.2
		l0.3-24.9h94.5h94.5v26v26l-32.7,0.3L1327,93l-0.2,93.8l-0.3,93.7l-27.6,0.3C1283.8,280.9,1271.1,280.7,1270.7,280.3z"/>
	<path fill="#E61F2D" d="M1413.5,279.8c-0.3-0.7-0.4-54.8-0.3-120.3l0.3-119h80h80l0.3,24.9c0.2,17.5-0.1,25.3-0.898,26.2
		c-0.9,1.2-10.2,1.4-52.5,1.4H1469v20v20l42.3,0.2l42.2,0.3v26v26l-42.2,0.3L1469,186v21v21l52.3,0.2l52.2,0.3v26v26l-79.8,0.3
		C1430.4,281,1413.8,280.8,1413.5,279.8z"/>
	<path fill="#E61F2D" d="M656.5,192.7c-0.3-0.7-0.4-12-0.3-25.2l0.3-24l40.9-0.3c29.6-0.2,41.198,0.1,42.3,0.9
		c1.1,1,1.3,5.7,1.1,25.3l-0.3,24.1l-41.8,0.3C665.5,194,656.8,193.8,656.5,192.7z"/>
</g>
<g>
	<path d="M422.475,328.721h41.502v6.017h-34.265v20.838h31.824v6.016h-31.824v22.146h34.962v6.016h-42.199V328.721z"/>
	<path d="M490.042,339.968v49.785h-7.237v-61.032h7.237l38.014,49.785v-49.785h7.237v61.032h-7.237L490.042,339.968z"/>
	<path d="M552.985,328.721h54.667v6.017h-23.715v55.016h-7.236v-55.016h-23.715V328.721z"/>
	<path d="M625.346,328.721h41.502v6.017h-34.265v20.838h31.824v6.016h-31.824v22.146h34.962v6.016h-42.199V328.721z"/>
	<path d="M701.369,363.771h-8.457v25.982h-7.237v-61.032h23.454c10.289,0,17.351,7.149,17.351,17.525
		c0,10.288-6.975,17.438-17.089,17.524l19.53,25.982h-8.021L701.369,363.771z M708.344,357.755c6.365,0,10.986-4.796,10.986-11.509
		c0-6.801-4.621-11.509-10.986-11.509h-15.432v23.018H708.344z"/>
	<path d="M745.22,328.721h21.623c11.073,0,18.833,7.76,18.833,19.095c0,11.247-7.76,19.007-18.833,19.007h-14.386v22.931h-7.237
		V328.721z M752.457,334.737v26.069h13.601c7.411,0,12.468-5.406,12.468-12.991c0-7.673-5.057-13.078-12.468-13.078H752.457z"/>
	<path d="M818.627,363.771h-8.458v25.982h-7.236v-61.032h23.454c10.288,0,17.351,7.149,17.351,17.525
		c0,10.288-6.976,17.438-17.089,17.524l19.529,25.982h-8.021L818.627,363.771z M825.602,357.755c6.365,0,10.986-4.796,10.986-11.509
		c0-6.801-4.621-11.509-10.986-11.509h-15.433v23.018H825.602z"/>
	<path d="M862.477,389.753v-61.032h7.237v61.032H862.477z"/>
	<path d="M906.156,390.188c-8.108,0-14.474-3.226-19.617-8.806l3.749-3.836c3.749,4.098,8.98,6.713,15.693,6.713
		c8.021,0,13.776-4.708,13.776-11.422c0-13.252-31.999-8.631-31.999-27.9c0-10.113,7.935-16.652,18.746-16.652
		c8.37,0,14.386,3.313,19.355,8.806l-3.661,3.924c-3.837-4.359-8.458-6.801-15.084-6.801c-7.586,0-12.207,4.359-12.207,10.375
		c0,14.387,31.999,9.939,31.999,27.813C926.907,383.214,917.752,390.188,906.156,390.188z"/>
	<path d="M944.863,328.721h41.501v6.017H952.1v20.838h31.824v6.016H952.1v22.146h34.963v6.016h-42.199V328.721z"/>
	<path d="M1049.917,390.188c-8.108,0-14.474-3.226-19.618-8.806l3.75-3.836c3.749,4.098,8.98,6.713,15.693,6.713
		c8.021,0,13.776-4.708,13.776-11.422c0-13.252-31.999-8.631-31.999-27.9c0-10.113,7.935-16.652,18.746-16.652
		c8.37,0,14.386,3.313,19.355,8.806l-3.661,3.924c-3.837-4.359-8.458-6.801-15.084-6.801c-7.586,0-12.206,4.359-12.206,10.375
		c0,14.387,31.998,9.939,31.998,27.813C1070.668,383.214,1061.513,390.188,1049.917,390.188z"/>
	<path d="M1114.868,328.285c18.223,0,30.777,12.643,30.777,30.952s-12.555,30.951-30.777,30.951
		c-18.136,0-30.69-12.642-30.69-30.951S1096.732,328.285,1114.868,328.285z M1114.868,384.26c14.037,0,23.628-10.375,23.628-25.022
		c0-14.648-9.591-25.023-23.628-25.023c-13.776,0-23.541,10.375-23.541,25.023C1091.327,373.885,1101.092,384.26,1114.868,384.26z"
		/>
	<path d="M1162.902,328.721h7.237v55.017h36.271v6.016h-43.508V328.721z"/>
	<path d="M1265.956,328.721h7.149v34.439c0,16.653-10.638,27.028-26.68,27.028c-16.043,0-26.68-10.375-26.68-27.028v-34.439h7.236
		v34.439c0,12.556,7.934,21.1,19.443,21.1c11.683,0,19.53-8.544,19.53-21.1V328.721z"/>
	<path d="M1290.885,328.721h54.668v6.017h-23.716v55.016h-7.236v-55.016h-23.716V328.721z"/>
	<path d="M1363.246,389.753v-61.032h7.236v61.032H1363.246z"/>
	<path d="M1418.434,328.285c18.223,0,30.777,12.643,30.777,30.952s-12.555,30.951-30.777,30.951
		c-18.136,0-30.69-12.642-30.69-30.951S1400.298,328.285,1418.434,328.285z M1418.434,384.26c14.037,0,23.628-10.375,23.628-25.022
		c0-14.648-9.591-25.023-23.628-25.023c-13.776,0-23.541,10.375-23.541,25.023C1394.893,373.885,1404.657,384.26,1418.434,384.26z"
		/>
	<path d="M1473.704,339.968v49.785h-7.237v-61.032h7.237l38.014,49.785v-49.785h7.237v61.032h-7.237L1473.704,339.968z"/>
	<path d="M1555.394,390.188c-8.108,0-14.474-3.226-19.618-8.806l3.75-3.836c3.749,4.098,8.98,6.713,15.693,6.713
		c8.021,0,13.776-4.708,13.776-11.422c0-13.252-31.999-8.631-31.999-27.9c0-10.113,7.935-16.652,18.746-16.652
		c8.37,0,14.386,3.313,19.355,8.806l-3.661,3.924c-3.837-4.359-8.458-6.801-15.084-6.801c-7.586,0-12.206,4.359-12.206,10.375
		c0,14.387,31.998,9.939,31.998,27.813C1576.145,383.214,1566.989,390.188,1555.394,390.188z"/>
</g>
</svg>
