<svg data-wf-icon="CapabilityVariableIcon" width="24" height="24" viewBox="0 0 24 24" fill="none" xmlns="http://www.w3.org/2000/svg"><path opacity="0.4" fill-rule="evenodd" clip-rule="evenodd" d="M4.57128 13.0461C3.67273 13.2424 3 14.0427 3 15.0001V19.0001C3 20.1047 3.89543 21.0001 5 21.0001L12.5252 21.0001L4.57128 13.0461Z" fill="currentColor"></path><path fill-rule="evenodd" clip-rule="evenodd" d="M18 4H14C13.4477 4 13 4.44772 13 5V17C13 18.6569 14.3431 20 16 20C17.6569 20 19 18.6569 19 17V5C19 4.44772 18.5523 4 18 4ZM14 3C12.8954 3 12 3.89543 12 5V7.34315L10.7573 6.10044C9.97624 5.31939 8.70991 5.31939 7.92886 6.10043L5.10043 8.92886C4.31939 9.70991 4.31939 10.9762 5.10043 11.7573L12.9999 19.6568V19.6457C13.7329 20.4762 14.8053 21 16 21C18.2091 21 20 19.2091 20 17V5C20 3.89543 19.1046 3 18 3H14ZM10.0502 6.80754L12 8.75736V17C12 17.0841 12.0026 17.1676 12.0077 17.2503L5.80754 11.0502C5.41702 10.6597 5.41702 10.0265 5.80754 9.63597L8.63597 6.80754C9.02649 6.41702 9.65966 6.41702 10.0502 6.80754ZM16 18C16.5523 18 17 17.5523 17 17C17 16.4477 16.5523 16 16 16C15.4477 16 15 16.4477 15 17C15 17.5523 15.4477 18 16 18Z" fill="currentColor"></path></svg>